<svg version="1" xmlns="http://www.w3.org/2000/svg" width="549.333" height="549.333" viewBox="0 0 412.000000 412.000000"><path d="M89.3 35.2c-5.3 9-6.6 21.1-3.6 34.1.7 3.2 4.3 13 7.9 21.9 7.9 19.3 8.5 23.6 4.7 33.1-2.3 5.8-3.2 6.8-8.7 10.4-3.3 2.2-10.8 6.3-16.6 9.2-13.8 7-22.6 12.9-29.9 20.1-13.8 13.5-20.9 30.7-20.9 50.1 0 11.6 1.6 19.5 6.1 29.2 5.3 11.5 12.8 20 30.7 34.7 12.5 10.3 18.9 18.9 21.5 28.9l1.1 4.6 2.6-4c5.9-9.5 7.6-20 5.2-32.5-.7-3.9-4.3-14.6-8-23.8-7.9-19.6-8.7-24.6-5.4-33.4 2.7-7.3 6-10 22.4-18.5 27.7-14.3 39.6-25 47.7-42.8 7.7-17 8.3-39.1 1.6-55-4.7-11.3-14.6-23.7-26.4-33.2-17.4-13.9-23.2-20.7-26.8-31.8L92.4 30l-3.1 5.2zM348.4 103.9c-1.7.9-4.6 2.8-6.5 4.2-1.9 1.4-9.5 6.9-16.9 12.3-7.4 5.3-15.5 11.2-18 13.1-2.5 1.9-11.7 8.8-20.5 15.4-25.8 19.2-65.8 51.1-91.5 72.9-7.4 6.3-14.6 12.4-16 13.6-5 4.2-16.5 14.1-17 14.6-.3.3-4.3 3.9-9 8-10.2 9-8.8 7.8-19 17-4.6 4.1-9.2 8.2-10.2 9.2C109.1 297 82 323.1 82 324.4c.1.6 6.6 9 14.6 18.6 8 9.6 17.8 21.6 21.7 26.7 4 5 7.5 9.2 7.8 9.2.9.1 36.8-25.5 61.7-44.1 22.3-16.7 51.4-39.2 69.2-53.7 16.2-13.1 32.4-26.5 33-27.1.3-.3 6.4-5.5 13.5-11.5 11.7-9.8 46.3-40 47.5-41.5.3-.3 5.5-5.1 11.5-10.5 10.5-9.5 15.8-14.4 28.8-26.7 5.3-5.1 5.7-5.8 5.7-10.1 0-4.5-.4-5.9-4.3-14.7-7.2-16.4-26.7-35-38.3-36.4-1.6-.2-4.3.3-6 1.3z"/></svg>